<svg width="149" height="63" viewBox="0 0 149 63" fill="none" xmlns="http://www.w3.org/2000/svg">
<path d="M47.6601 59.0444H40.4286V58.1637C41.0467 57.8237 41.6725 57.5997 42.306 57.4915V44.3729C41.997 44.3265 41.6725 44.2416 41.3325 44.1179C40.9926 43.9943 40.6913 43.8553 40.4286 43.7007V42.82H47.6601V43.7007C47.3819 43.8707 47.0729 44.0175 46.733 44.1411C46.4085 44.2493 46.0917 44.3265 45.7827 44.3729V57.4915C46.0917 57.5533 46.4085 57.6383 46.733 57.7465C47.0729 57.8546 47.3819 57.9937 47.6601 58.1637V59.0444ZM74.8261 59.0444H68.684V58.1405C68.8848 58.0323 69.078 57.9396 69.2634 57.8624C69.4643 57.7697 69.696 57.6769 69.9587 57.5842V52.1375C69.9587 51.164 69.8197 50.4068 69.5415 49.866C69.2634 49.3098 68.7689 49.0316 68.0582 49.0316C67.471 49.0316 66.9611 49.2248 66.5284 49.6111C66.1112 49.9819 65.7945 50.4918 65.5781 51.1408V57.5842C65.8254 57.646 66.0417 57.7233 66.2271 57.816C66.428 57.8933 66.6366 58.0014 66.8529 58.1405V59.0444H60.7108V58.1405C61.0971 57.9396 61.607 57.7542 62.2405 57.5842V49.1012L60.7108 48.9157V48.0118C60.9117 47.9191 61.1744 47.8341 61.4988 47.7569C61.8233 47.6641 62.171 47.5792 62.5418 47.5019C62.9281 47.4246 63.3144 47.3628 63.7007 47.3165C64.1025 47.2547 64.4656 47.2083 64.7901 47.1774H65.5781V49.5647H65.6013C65.9258 48.9157 66.4125 48.3595 67.0615 47.8959C67.7105 47.4169 68.4985 47.1774 69.4256 47.1774C70.0283 47.1774 70.5691 47.2547 71.0481 47.4092C71.5271 47.5483 71.9288 47.8032 72.2533 48.1741C72.5933 48.5449 72.8482 49.0471 73.0182 49.6806C73.2036 50.2987 73.2963 51.0867 73.2963 52.0447V57.5842C73.9144 57.6924 74.4243 57.8778 74.8261 58.1405V59.0444ZM95.5367 56.7498C95.4594 57.0898 95.3204 57.4143 95.1195 57.7233C94.9186 58.0323 94.6791 58.3105 94.401 58.5577C94.1228 58.7895 93.8061 58.9749 93.4507 59.114C93.0953 59.253 92.7167 59.3226 92.315 59.3226C90.7852 59.3226 89.6186 58.8436 88.8151 57.8855C88.0271 56.9121 87.6331 55.4287 87.6331 53.4354C87.6331 52.4156 87.7721 51.5271 88.0503 50.77C88.3284 49.9974 88.7147 49.3484 89.2091 48.823C89.7191 48.2977 90.3294 47.9036 91.0402 47.641C91.751 47.3783 92.539 47.2469 93.4043 47.2469C93.6825 47.2469 93.9142 47.2547 94.0997 47.2701C94.3005 47.2856 94.4782 47.3088 94.6327 47.3397C94.8027 47.3551 94.9572 47.3937 95.0963 47.4555C95.2508 47.5019 95.4208 47.556 95.6062 47.6178V43.5385L93.8447 43.3531V42.4491C94.061 42.3564 94.3546 42.2714 94.7255 42.1942C95.1118 42.1169 95.5135 42.0474 95.9307 41.9856C96.3479 41.9083 96.7574 41.8388 97.1591 41.777C97.5609 41.7152 97.8931 41.6611 98.1558 41.6147H98.9438V57.3988L100.474 57.5842V58.3955C100.257 58.5036 99.9791 58.6041 99.6391 58.6968C99.2992 58.7895 98.9438 58.8745 98.573 58.9517C98.2021 59.029 97.839 59.0908 97.4836 59.1371C97.1437 59.199 96.8578 59.2453 96.626 59.2762H95.838L95.6294 56.7498H95.5367ZM93.4275 57.4683C93.9683 57.4683 94.4241 57.2984 94.795 56.9584C95.1658 56.6185 95.4362 56.039 95.6062 55.2201V48.9853C95.4053 48.8617 95.1504 48.7612 94.8413 48.684C94.5478 48.6067 94.1769 48.5681 93.7288 48.5681C92.8326 48.5681 92.1914 48.9776 91.8051 49.7965C91.4188 50.6 91.2256 51.7743 91.2256 53.3195C91.2256 54.5711 91.3956 55.5755 91.7355 56.3326C92.0755 57.0898 92.6395 57.4683 93.4275 57.4683ZM119.726 59.0444H113.329V58.1405C113.56 58.0169 113.8 57.9164 114.047 57.8392C114.294 57.7465 114.565 57.6615 114.858 57.5842V49.1012L113.329 48.9157V48.0118C113.56 47.9191 113.846 47.8264 114.186 47.7337C114.542 47.641 114.913 47.5637 115.299 47.5019C115.685 47.4246 116.064 47.3628 116.435 47.3165C116.805 47.2547 117.13 47.2083 117.408 47.1774H118.196V57.5842C118.505 57.6615 118.783 57.7465 119.03 57.8392C119.278 57.9164 119.509 58.0169 119.726 58.1405V59.0444ZM114.464 43.6544C114.464 43.1136 114.65 42.6886 115.021 42.3796C115.392 42.0706 115.871 41.9161 116.458 41.9161C117.045 41.9161 117.524 42.0706 117.895 42.3796C118.266 42.6886 118.451 43.1136 118.451 43.6544C118.451 44.1798 118.266 44.597 117.895 44.906C117.524 45.215 117.045 45.3695 116.458 45.3695C115.871 45.3695 115.392 45.215 115.021 44.906C114.65 44.597 114.464 44.1798 114.464 43.6544ZM143.02 55.6837C143.02 56.0236 143.02 56.3172 143.02 56.5644C143.036 56.8116 143.059 57.0743 143.09 57.3525L144.689 57.5842V58.3955C144.504 58.4882 144.249 58.5809 143.924 58.6736C143.615 58.7663 143.283 58.859 142.927 58.9517C142.588 59.029 142.248 59.0908 141.908 59.1371C141.568 59.199 141.266 59.2453 141.004 59.2762H140.216C140.061 58.9208 139.968 58.5654 139.938 58.21C139.907 57.8546 139.883 57.422 139.868 56.9121H139.752C139.675 57.2211 139.543 57.5224 139.358 57.816C139.173 58.0941 138.933 58.3491 138.64 58.5809C138.361 58.7972 138.029 58.9749 137.643 59.114C137.257 59.253 136.824 59.3226 136.345 59.3226C135.835 59.3226 135.364 59.2453 134.931 59.0908C134.498 58.9363 134.12 58.7199 133.795 58.4418C133.471 58.1637 133.216 57.8315 133.031 57.4452C132.845 57.0434 132.752 56.5953 132.752 56.1009C132.752 55.4055 132.884 54.8338 133.146 54.3857C133.409 53.9376 133.819 53.5745 134.375 53.2963C134.947 53.0028 135.673 52.7864 136.554 52.6474C137.45 52.5083 138.531 52.4079 139.798 52.3461C139.922 51.0172 139.868 50.0437 139.636 49.4257C139.404 48.8076 138.902 48.4985 138.13 48.4985C137.651 48.4985 137.21 48.5758 136.809 48.7303L135.719 51.5117H134.699C134.576 51.3262 134.452 51.1176 134.328 50.8859C134.22 50.6386 134.112 50.3837 134.004 50.121C133.911 49.8429 133.826 49.5647 133.749 49.2866C133.687 49.0085 133.641 48.738 133.61 48.4754C134.197 48.0736 134.954 47.7569 135.881 47.5251C136.809 47.2933 137.79 47.1774 138.825 47.1774C139.706 47.1774 140.424 47.2778 140.981 47.4787C141.537 47.6641 141.969 47.9268 142.278 48.2668C142.603 48.5913 142.827 48.9776 142.951 49.4257C143.074 49.8738 143.136 50.3528 143.136 50.8627C143.136 51.7898 143.113 52.6319 143.067 53.3891C143.036 54.1307 143.02 54.8956 143.02 55.6837ZM137.805 57.4683C138.13 57.4683 138.408 57.4065 138.64 57.2829C138.871 57.1593 139.064 57.0125 139.219 56.8425C139.389 56.6726 139.513 56.4872 139.59 56.2863C139.683 56.0854 139.752 55.9077 139.798 55.7532V53.4354C139.072 53.4509 138.477 53.4972 138.014 53.5745C137.55 53.6517 137.187 53.7831 136.924 53.9685C136.662 54.1385 136.476 54.3625 136.368 54.6407C136.275 54.9033 136.229 55.2278 136.229 55.6141C136.229 56.2013 136.368 56.6571 136.646 56.9816C136.924 57.3061 137.311 57.4683 137.805 57.4683Z" fill="url(#paint0_linear_3832_16352)"/>
<path d="M51.0904 14.6755H56.8385V15.5562C56.5449 15.788 56.2204 15.9966 55.865 16.182C55.5096 16.352 55.1774 16.4833 54.8684 16.576V31.178H52.8983L44.7165 19.3574L43.7894 17.5727H43.7199L43.9285 19.4269V29.092C44.2375 29.1693 44.5774 29.3006 44.9483 29.4861C45.3346 29.656 45.6591 29.8337 45.9217 30.0191V30.8999H40.1968V30.0191C40.475 29.8337 40.7763 29.6638 41.1008 29.5092C41.4407 29.3393 41.7884 29.2002 42.1438 29.092V16.437C41.8347 16.3134 41.5257 16.1743 41.2167 16.0198C40.9076 15.8652 40.6295 15.703 40.3823 15.533V14.6755H45.3887L52.0407 24.3174L53.1069 26.3107H53.1996L53.0837 24.3174V16.576C52.7128 16.4524 52.3497 16.3056 51.9943 16.1357C51.6544 15.9502 51.3531 15.7571 51.0904 15.5562V14.6755ZM68.1912 27.5391C68.1912 27.8791 68.1912 28.1727 68.1912 28.4199C68.2067 28.6671 68.2299 28.9298 68.2608 29.2079L69.86 29.4397V30.2509C69.6746 30.3436 69.4197 30.4363 69.0952 30.5291C68.7861 30.6218 68.4539 30.7145 68.0985 30.8072C67.7586 30.8845 67.4186 30.9463 67.0787 30.9926C66.7388 31.0544 66.4375 31.1008 66.1748 31.1317H65.3867C65.2322 30.7763 65.1395 30.4209 65.1086 30.0655C65.0777 29.7101 65.0545 29.2775 65.0391 28.7675H64.9232C64.8459 29.0766 64.7146 29.3779 64.5292 29.6715C64.3437 29.9496 64.1042 30.2046 63.8106 30.4363C63.5325 30.6527 63.2003 30.8304 62.814 30.9694C62.4277 31.1085 61.995 31.178 61.516 31.178C61.0061 31.178 60.5348 31.1008 60.1022 30.9463C59.6695 30.7917 59.291 30.5754 58.9665 30.2973C58.642 30.0191 58.387 29.6869 58.2016 29.3006C58.0162 28.8989 57.9235 28.4508 57.9235 27.9563C57.9235 27.261 58.0548 26.6893 58.3175 26.2412C58.5802 25.7931 58.9897 25.4299 59.5459 25.1518C60.1176 24.8582 60.8439 24.6419 61.7246 24.5028C62.6208 24.3638 63.7025 24.2633 64.9695 24.2015C65.0931 22.8727 65.0391 21.8992 64.8073 21.2811C64.5755 20.663 64.0733 20.354 63.3007 20.354C62.8217 20.354 62.3813 20.4313 61.9796 20.5858L60.8902 23.3671H59.8704C59.7468 23.1817 59.6232 22.9731 59.4996 22.7413C59.3914 22.4941 59.2832 22.2391 59.1751 21.9765C59.0824 21.6983 58.9974 21.4202 58.9201 21.1421C58.8583 20.8639 58.812 20.5935 58.7811 20.3308C59.3682 19.9291 60.1254 19.6123 61.0525 19.3805C61.9796 19.1488 62.9608 19.0329 63.9961 19.0329C64.8768 19.0329 65.5953 19.1333 66.1516 19.3342C66.7079 19.5196 67.1405 19.7823 67.4496 20.1222C67.774 20.4467 67.9981 20.833 68.1217 21.2811C68.2453 21.7292 68.3071 22.2082 68.3071 22.7181C68.3071 23.6453 68.284 24.4874 68.2376 25.2445C68.2067 25.9862 68.1912 26.7511 68.1912 27.5391ZM62.9762 29.3238C63.3007 29.3238 63.5789 29.262 63.8106 29.1384C64.0424 29.0148 64.2356 28.868 64.3901 28.698C64.5601 28.528 64.6837 28.3426 64.7609 28.1417C64.8536 27.9409 64.9232 27.7632 64.9695 27.6087V25.2909C64.2433 25.3063 63.6484 25.3527 63.1848 25.4299C62.7213 25.5072 62.3582 25.6385 62.0955 25.824C61.8328 25.9939 61.6474 26.218 61.5392 26.4961C61.4465 26.7588 61.4002 27.0833 61.4002 27.4696C61.4002 28.0568 61.5392 28.5126 61.8174 28.8371C62.0955 29.1616 62.4818 29.3238 62.9762 29.3238ZM83.2716 16.2284C82.9008 16.1511 82.5454 16.0507 82.2055 15.9271C81.881 15.8034 81.5874 15.6798 81.3247 15.5562V14.6755H87.2119V15.5562C87.0264 15.6798 86.7792 15.8034 86.4702 15.9271C86.1766 16.0507 85.8676 16.1511 85.5431 16.2284L80.2122 30.8999L77.9176 31.178L71.9377 16.2284C71.6287 16.1511 71.3196 16.0584 71.0106 15.9502C70.7016 15.8266 70.4312 15.6953 70.1994 15.5562V14.6755H77.9176V15.5562C77.6549 15.6798 77.3613 15.8034 77.0368 15.9271C76.7123 16.0507 76.3724 16.1511 76.017 16.2284L79.2619 25.3604L79.795 27.5391H79.8413L80.3512 25.3141L83.2716 16.2284ZM94.3361 30.8999H87.9391V29.996C88.1708 29.8724 88.4104 29.7719 88.6576 29.6947C88.9048 29.6019 89.1752 29.517 89.4688 29.4397V20.9566L87.9391 20.7712V19.8673C88.1708 19.7746 88.4567 19.6819 88.7966 19.5891C89.152 19.4964 89.5229 19.4192 89.9092 19.3574C90.2955 19.2801 90.674 19.2183 91.0449 19.1719C91.4157 19.1101 91.7402 19.0638 92.0184 19.0329H92.8064V29.4397C93.1154 29.517 93.3936 29.6019 93.6408 29.6947C93.888 29.7719 94.1198 29.8724 94.3361 29.996V30.8999ZM89.0748 15.5099C89.0748 14.969 89.2602 14.5441 89.631 14.2351C90.0019 13.926 90.4809 13.7715 91.0681 13.7715C91.6552 13.7715 92.1342 13.926 92.5051 14.2351C92.8759 14.5441 93.0614 14.969 93.0614 15.5099C93.0614 16.0352 92.8759 16.4524 92.5051 16.7615C92.1342 17.0705 91.6552 17.225 91.0681 17.225C90.4809 17.225 90.0019 17.0705 89.631 16.7615C89.2602 16.4524 89.0748 16.0352 89.0748 15.5099ZM109.657 29.8801C109.348 30.0346 108.97 30.1891 108.522 30.3436C108.074 30.4982 107.602 30.6372 107.108 30.7608C106.613 30.8845 106.119 30.9849 105.624 31.0621C105.13 31.1394 104.69 31.178 104.303 31.178C102.974 31.178 101.785 31.0081 100.734 30.6681C99.6987 30.3127 98.8102 29.7874 98.0685 29.092C97.3422 28.3813 96.786 27.5005 96.3997 26.4498C96.0134 25.399 95.8202 24.1783 95.8202 22.7877C95.8202 21.2734 96.052 19.9909 96.5156 18.9402C96.9946 17.874 97.6204 17.0087 98.393 16.3443C99.181 15.6644 100.069 15.1699 101.058 14.8609C102.047 14.5518 103.059 14.3973 104.095 14.3973C105.115 14.3973 106.073 14.4669 106.969 14.6059C107.865 14.745 108.576 14.9459 109.101 15.2085C109.101 15.4403 109.086 15.7416 109.055 16.1125C109.039 16.4679 109.008 16.8542 108.962 17.2714C108.916 17.6886 108.854 18.1058 108.777 18.523C108.715 18.9402 108.638 19.3187 108.545 19.6587H107.595L106.297 16.1357C106.127 16.0584 105.872 16.0043 105.532 15.9734C105.192 15.9271 104.852 15.9039 104.512 15.9039C103.878 15.9039 103.268 16.0275 102.681 16.2747C102.094 16.522 101.576 16.9237 101.128 17.48C100.68 18.0208 100.324 18.7316 100.062 19.6123C99.7991 20.4776 99.6678 21.5361 99.6678 22.7877C99.6678 23.8075 99.7836 24.7423 100.015 25.5922C100.263 26.4266 100.603 27.1451 101.035 27.7477C101.468 28.3503 101.986 28.8216 102.588 29.1616C103.191 29.5015 103.855 29.6715 104.581 29.6715C104.813 29.6715 105.053 29.656 105.3 29.6251C105.547 29.5788 105.779 29.5247 105.995 29.4629C106.212 29.4011 106.397 29.3315 106.552 29.2543C106.722 29.177 106.837 29.1075 106.899 29.0457V24.6883C106.497 24.6574 106.119 24.5801 105.764 24.4565C105.408 24.3329 105.076 24.1861 104.767 24.0161V23.1353H111.094V24.0161C110.955 24.1552 110.77 24.2865 110.538 24.4101C110.306 24.5183 110.013 24.611 109.657 24.6883V29.8801ZM122.243 27.5391C122.243 27.8791 122.243 28.1727 122.243 28.4199C122.258 28.6671 122.281 28.9298 122.312 29.2079L123.911 29.4397V30.2509C123.726 30.3436 123.471 30.4363 123.146 30.5291C122.837 30.6218 122.505 30.7145 122.15 30.8072C121.81 30.8845 121.47 30.9463 121.13 30.9926C120.79 31.0544 120.489 31.1008 120.226 31.1317H119.438C119.284 30.7763 119.191 30.4209 119.16 30.0655C119.129 29.7101 119.106 29.2775 119.09 28.7675H118.974C118.897 29.0766 118.766 29.3779 118.58 29.6715C118.395 29.9496 118.156 30.2046 117.862 30.4363C117.584 30.6527 117.252 30.8304 116.865 30.9694C116.479 31.1085 116.046 31.178 115.567 31.178C115.057 31.178 114.586 31.1008 114.154 30.9463C113.721 30.7917 113.342 30.5754 113.018 30.2973C112.693 30.0191 112.438 29.6869 112.253 29.3006C112.068 28.8989 111.975 28.4508 111.975 27.9563C111.975 27.261 112.106 26.6893 112.369 26.2412C112.631 25.7931 113.041 25.4299 113.597 25.1518C114.169 24.8582 114.895 24.6419 115.776 24.5028C116.672 24.3638 117.754 24.2633 119.021 24.2015C119.144 22.8727 119.09 21.8992 118.859 21.2811C118.627 20.663 118.125 20.354 117.352 20.354C116.873 20.354 116.433 20.4313 116.031 20.5858L114.942 23.3671H113.922C113.798 23.1817 113.674 22.9731 113.551 22.7413C113.443 22.4941 113.335 22.2391 113.226 21.9765C113.134 21.6983 113.049 21.4202 112.971 21.1421C112.91 20.8639 112.863 20.5935 112.832 20.3308C113.42 19.9291 114.177 19.6123 115.104 19.3805C116.031 19.1488 117.012 19.0329 118.047 19.0329C118.928 19.0329 119.647 19.1333 120.203 19.3342C120.759 19.5196 121.192 19.7823 121.501 20.1222C121.825 20.4467 122.049 20.833 122.173 21.2811C122.297 21.7292 122.358 22.2082 122.358 22.7181C122.358 23.6453 122.335 24.4874 122.289 25.2445C122.258 25.9862 122.243 26.7511 122.243 27.5391ZM117.028 29.3238C117.352 29.3238 117.63 29.262 117.862 29.1384C118.094 29.0148 118.287 28.868 118.441 28.698C118.611 28.528 118.735 28.3426 118.812 28.1417C118.905 27.9409 118.974 27.7632 119.021 27.6087V25.2909C118.295 25.3063 117.7 25.3527 117.236 25.4299C116.773 25.5072 116.409 25.6385 116.147 25.824C115.884 25.9939 115.699 26.218 115.591 26.4961C115.498 26.7588 115.451 27.0833 115.451 27.4696C115.451 28.0568 115.591 28.5126 115.869 28.8371C116.147 29.1616 116.533 29.3238 117.028 29.3238ZM124.436 19.8673C125.023 19.4964 125.641 19.2338 126.29 19.0792V17.2018C126.414 17.1091 126.715 16.9778 127.194 16.8078C127.689 16.6224 128.237 16.4756 128.84 16.3674H129.628V19.311H132.687V20.7712H129.628V26.7743C129.628 27.7323 129.744 28.3967 129.976 28.7675C130.223 29.1384 130.625 29.3238 131.181 29.3238C131.459 29.3238 131.768 29.3084 132.108 29.2775C132.463 29.2311 132.788 29.1538 133.081 29.0457L133.244 29.8105C133.105 29.9496 132.896 30.0964 132.618 30.2509C132.355 30.4054 132.046 30.5522 131.691 30.6913C131.351 30.8304 130.972 30.9463 130.555 31.039C130.153 31.1317 129.728 31.178 129.28 31.178C128.276 31.178 127.526 30.9154 127.032 30.39C126.538 29.8646 126.29 29.0148 126.29 27.8404V20.7712H124.436V19.8673ZM144.773 28.953C144.649 29.2157 144.448 29.4861 144.17 29.7642C143.907 30.0269 143.575 30.2664 143.173 30.4827C142.787 30.6836 142.331 30.8458 141.806 30.9694C141.296 31.1085 140.74 31.178 140.137 31.178C139.179 31.178 138.329 31.039 137.587 30.7608C136.846 30.4673 136.228 30.0578 135.733 29.5324C135.239 28.9916 134.86 28.3503 134.598 27.6087C134.35 26.867 134.227 26.0326 134.227 25.1055C134.227 23.1276 134.744 21.6211 135.78 20.5858C136.815 19.5505 138.252 19.0329 140.091 19.0329C140.879 19.0329 141.613 19.141 142.293 19.3574C142.988 19.5737 143.56 19.9291 144.008 20.4235C144.471 20.918 144.788 21.567 144.958 22.3705C145.143 23.174 145.136 24.1552 144.935 25.3141H137.819C137.835 26.5348 138.144 27.5082 138.746 28.2345C139.364 28.9607 140.268 29.3238 141.458 29.3238C141.968 29.3238 142.493 29.2466 143.034 29.092C143.591 28.9375 144.023 28.7366 144.332 28.4894L144.773 28.953ZM139.998 20.354C139.689 20.354 139.411 20.4081 139.164 20.5163C138.932 20.6244 138.723 20.8253 138.538 21.1189C138.368 21.397 138.229 21.7833 138.121 22.2778C138.012 22.7568 137.935 23.3671 137.889 24.1088H141.62C141.729 22.9036 141.659 21.9765 141.412 21.3275C141.165 20.6785 140.693 20.354 139.998 20.354Z" fill="url(#paint1_linear_3832_16352)"/>
<g filter="url(#filter0_i_3832_16352)">
<path d="M0 0C11.4517 0 20.7351 9.28343 20.7351 20.7351V61.7642C9.28342 61.7642 0 52.4807 0 41.0291V0Z" fill="url(#paint2_linear_3832_16352)"/>
</g>
<g filter="url(#filter1_i_3832_16352)">
<path d="M22.6962 61.7629C29.031 61.8161 34.2109 56.5546 34.2659 50.011L34.1668 26.4703C27.8321 26.4171 22.7513 31.8384 22.6963 38.382L22.6962 61.7629Z" fill="url(#paint3_linear_3832_16352)"/>
</g>
<circle cx="28.6763" cy="18.088" r="5.73524" fill="url(#paint4_radial_3832_16352)"/>
<path d="M30.063 17.8806C30.3143 18.0256 30.3143 18.3883 30.063 18.5333L28.1552 19.6348C27.904 19.7798 27.59 19.5985 27.59 19.3084V17.1055C27.59 16.8154 27.904 16.6341 28.1552 16.7791L30.063 17.8806Z" fill="url(#paint5_linear_3832_16352)"/>
<path d="M39.7333 38.9055H144.861" stroke="#2777F5" stroke-width="0.558771" stroke-linecap="round"/>
<defs>
<filter id="filter0_i_3832_16352" x="0" y="0" width="22.132" height="63.1611" filterUnits="userSpaceOnUse" color-interpolation-filters="sRGB">
<feFlood flood-opacity="0" result="BackgroundImageFix"/>
<feBlend mode="normal" in="SourceGraphic" in2="BackgroundImageFix" result="shape"/>
<feColorMatrix in="SourceAlpha" type="matrix" values="0 0 0 0 0 0 0 0 0 0 0 0 0 0 0 0 0 0 127 0" result="hardAlpha"/>
<feOffset dx="1.39693" dy="1.39693"/>
<feGaussianBlur stdDeviation="1.74616"/>
<feComposite in2="hardAlpha" operator="arithmetic" k2="-1" k3="1"/>
<feColorMatrix type="matrix" values="0 0 0 0 0 0 0 0 0 0 0 0 0 0 0 0 0 0 0.25 0"/>
<feBlend mode="normal" in2="shape" result="effect1_innerShadow_3832_16352"/>
</filter>
<filter id="filter1_i_3832_16352" x="21.5787" y="26.47" width="12.6871" height="36.2711" filterUnits="userSpaceOnUse" color-interpolation-filters="sRGB">
<feFlood flood-opacity="0" result="BackgroundImageFix"/>
<feBlend mode="normal" in="SourceGraphic" in2="BackgroundImageFix" result="shape"/>
<feColorMatrix in="SourceAlpha" type="matrix" values="0 0 0 0 0 0 0 0 0 0 0 0 0 0 0 0 0 0 127 0" result="hardAlpha"/>
<feOffset dx="-1.11754" dy="0.977849"/>
<feGaussianBlur stdDeviation="1.39693"/>
<feComposite in2="hardAlpha" operator="arithmetic" k2="-1" k3="1"/>
<feColorMatrix type="matrix" values="0 0 0 0 0 0 0 0 0 0 0 0 0 0 0 0 0 0 0.25 0"/>
<feBlend mode="normal" in2="shape" result="effect1_innerShadow_3832_16352"/>
</filter>
<linearGradient id="paint0_linear_3832_16352" x1="92.7333" y1="43.0444" x2="92.7333" y2="59.0444" gradientUnits="userSpaceOnUse">
<stop stop-color="#258A00"/>
<stop offset="0.557292" stop-color="#34BC02"/>
<stop offset="1" stop-color="#258A00"/>
</linearGradient>
<linearGradient id="paint1_linear_3832_16352" x1="93.2333" y1="14.8999" x2="93.2333" y2="30.8999" gradientUnits="userSpaceOnUse">
<stop stop-color="#DC6801"/>
<stop offset="0.5" stop-color="#FF9D46"/>
<stop offset="1" stop-color="#DC6801"/>
</linearGradient>
<linearGradient id="paint2_linear_3832_16352" x1="0.0356359" y1="30.8493" x2="20.7102" y2="30.8493" gradientUnits="userSpaceOnUse">
<stop stop-color="#DB6700"/>
<stop offset="0.609375" stop-color="#FE8C26"/>
<stop offset="1" stop-color="#DB6700"/>
</linearGradient>
<linearGradient id="paint3_linear_3832_16352" x1="34.4001" y1="44.1201" x2="22.5262" y2="44.1201" gradientUnits="userSpaceOnUse">
<stop stop-color="#3B9B18"/>
<stop offset="0.651042" stop-color="#04B801"/>
<stop offset="1" stop-color="#258900"/>
</linearGradient>
<radialGradient id="paint4_radial_3832_16352" cx="0" cy="0" r="1" gradientUnits="userSpaceOnUse" gradientTransform="translate(28.6763 18.088) rotate(90) scale(5.73524)">
<stop stop-color="#003E9E"/>
<stop offset="0.690826" stop-color="#297CFF"/>
<stop offset="1" stop-color="#0040A5"/>
</radialGradient>
<linearGradient id="paint5_linear_3832_16352" x1="30.2092" y1="18.2069" x2="27.5551" y2="18.1371" gradientUnits="userSpaceOnUse">
<stop stop-color="#F1F1F1"/>
<stop offset="0.520833" stop-color="white"/>
<stop offset="1" stop-color="#F1F1F1"/>
</linearGradient>
</defs>
</svg>
