<svg width="274" height="48" viewBox="0 0 274 48" fill="none" xmlns="http://www.w3.org/2000/svg">
<rect width="48" height="48" rx="24" fill="#45197C"/>
<path d="M10.1372 22.9888V33.0446H13.3156V22.7422C13.3156 18.8514 14.7952 17.5636 16.9598 17.5636C19.1518 17.5636 20.6588 18.8514 20.6588 22.7422V33.0446H23.7276V22.9888C23.7276 17.0978 21.0972 14.7962 16.9598 14.7962C12.795 14.7962 10.1372 17.0978 10.1372 22.9888Z" fill="white"/>
<rect width="16" height="3" transform="translate(23 22)" fill="white"/>
<rect width="18" height="3" transform="matrix(0 1 -1 0 33 15)" fill="white"/>
<g clip-path="url(#clip0_10879_14621)">
<path d="M77.1152 11.9062V37.5H71.8418L61.5586 20.3438V37.5H56.2852V11.9062H61.5586L71.8594 29.0801V11.9062H77.1152ZM90.1406 37.8516C88.6641 37.8516 87.3398 37.6172 86.168 37.1484C84.9961 36.668 84 36.0059 83.1797 35.1621C82.3711 34.3184 81.75 33.3398 81.3164 32.2266C80.8828 31.1016 80.666 29.9062 80.666 28.6406V27.9375C80.666 26.4961 80.8711 25.1777 81.2812 23.9824C81.6914 22.7871 82.2773 21.75 83.0391 20.8711C83.8125 19.9922 84.75 19.3184 85.8516 18.8496C86.9531 18.3691 88.1953 18.1289 89.5781 18.1289C90.9258 18.1289 92.1211 18.3516 93.1641 18.7969C94.207 19.2422 95.0801 19.875 95.7832 20.6953C96.498 21.5156 97.0371 22.5 97.4004 23.6484C97.7637 24.7852 97.9453 26.0508 97.9453 27.4453V29.5547H82.8281V26.1797H92.9707V25.793C92.9707 25.0898 92.8418 24.4629 92.584 23.9121C92.3379 23.3496 91.9629 22.9043 91.459 22.5762C90.9551 22.248 90.3105 22.084 89.5254 22.084C88.8574 22.084 88.2832 22.2305 87.8027 22.5234C87.3223 22.8164 86.9297 23.2266 86.625 23.7539C86.332 24.2812 86.1094 24.9023 85.957 25.6172C85.8164 26.3203 85.7461 27.0938 85.7461 27.9375V28.6406C85.7461 29.4023 85.8516 30.1055 86.0625 30.75C86.2852 31.3945 86.5957 31.9512 86.9941 32.4199C87.4043 32.8887 87.8965 33.252 88.4707 33.5098C89.0566 33.7676 89.7188 33.8965 90.457 33.8965C91.3711 33.8965 92.2207 33.7207 93.0059 33.3691C93.8027 33.0059 94.4883 32.4609 95.0625 31.7344L97.5234 34.4062C97.125 34.9805 96.5801 35.5312 95.8887 36.0586C95.209 36.5859 94.3887 37.0195 93.4277 37.3594C92.4668 37.6875 91.3711 37.8516 90.1406 37.8516ZM108.686 33.8965C109.307 33.8965 109.857 33.7793 110.338 33.5449C110.818 33.2988 111.193 32.959 111.463 32.5254C111.744 32.0801 111.891 31.5586 111.902 30.9609H116.666C116.654 32.2969 116.297 33.4863 115.594 34.5293C114.891 35.5605 113.947 36.375 112.764 36.9727C111.58 37.5586 110.256 37.8516 108.791 37.8516C107.314 37.8516 106.025 37.6055 104.924 37.1133C103.834 36.6211 102.926 35.9414 102.199 35.0742C101.473 34.1953 100.928 33.1758 100.564 32.0156C100.201 30.8438 100.02 29.5898 100.02 28.2539V27.7441C100.02 26.3965 100.201 25.1426 100.564 23.9824C100.928 22.8105 101.473 21.791 102.199 20.9238C102.926 20.0449 103.834 19.3594 104.924 18.8672C106.014 18.375 107.291 18.1289 108.756 18.1289C110.314 18.1289 111.68 18.4277 112.852 19.0254C114.035 19.623 114.961 20.4785 115.629 21.5918C116.309 22.6934 116.654 24 116.666 25.5117H111.902C111.891 24.8789 111.756 24.3047 111.498 23.7891C111.252 23.2734 110.889 22.8633 110.408 22.5586C109.939 22.2422 109.359 22.084 108.668 22.084C107.93 22.084 107.326 22.2422 106.857 22.5586C106.389 22.8633 106.025 23.2852 105.768 23.8242C105.51 24.3516 105.328 24.9551 105.223 25.6348C105.129 26.3027 105.082 27.0059 105.082 27.7441V28.2539C105.082 28.9922 105.129 29.7012 105.223 30.3809C105.316 31.0605 105.492 31.6641 105.75 32.1914C106.02 32.7188 106.389 33.1348 106.857 33.4395C107.326 33.7441 107.936 33.8965 108.686 33.8965ZM128.918 18.4805V22.0664H117.844V18.4805H128.918ZM120.586 13.7871H125.648V31.7695C125.648 32.3203 125.719 32.7422 125.859 33.0352C126.012 33.3281 126.234 33.5332 126.527 33.6504C126.82 33.7559 127.189 33.8086 127.635 33.8086C127.951 33.8086 128.232 33.7969 128.479 33.7734C128.736 33.7383 128.953 33.7031 129.129 33.668L129.146 37.3945C128.713 37.5352 128.244 37.6465 127.74 37.7285C127.236 37.8105 126.68 37.8516 126.07 37.8516C124.957 37.8516 123.984 37.6699 123.152 37.3066C122.332 36.9316 121.699 36.334 121.254 35.5137C120.809 34.6934 120.586 33.6152 120.586 32.2793V13.7871ZM142.066 33.2109V24.7383C142.066 24.1289 141.967 23.6074 141.768 23.1738C141.568 22.7285 141.258 22.3828 140.836 22.1367C140.426 21.8906 139.893 21.7676 139.236 21.7676C138.674 21.7676 138.188 21.8672 137.777 22.0664C137.367 22.2539 137.051 22.5293 136.828 22.8926C136.605 23.2441 136.494 23.6602 136.494 24.1406H131.432C131.432 23.332 131.619 22.5645 131.994 21.8379C132.369 21.1113 132.914 20.4727 133.629 19.9219C134.344 19.3594 135.193 18.9199 136.178 18.6035C137.174 18.2871 138.287 18.1289 139.518 18.1289C140.994 18.1289 142.307 18.375 143.455 18.8672C144.604 19.3594 145.506 20.0977 146.162 21.082C146.83 22.0664 147.164 23.2969 147.164 24.7734V32.9121C147.164 33.9551 147.229 34.8105 147.357 35.4785C147.486 36.1348 147.674 36.709 147.92 37.2012V37.5H142.805C142.559 36.9844 142.371 36.3398 142.242 35.5664C142.125 34.7812 142.066 33.9961 142.066 33.2109ZM142.734 25.916L142.77 28.7812H139.939C139.271 28.7812 138.691 28.8574 138.199 29.0098C137.707 29.1621 137.303 29.3789 136.986 29.6602C136.67 29.9297 136.436 30.2461 136.283 30.6094C136.143 30.9727 136.072 31.3711 136.072 31.8047C136.072 32.2383 136.172 32.6309 136.371 32.9824C136.57 33.3223 136.857 33.5918 137.232 33.791C137.607 33.9785 138.047 34.0723 138.551 34.0723C139.312 34.0723 139.975 33.9199 140.537 33.6152C141.1 33.3105 141.533 32.9355 141.838 32.4902C142.154 32.0449 142.318 31.623 142.33 31.2246L143.666 33.3691C143.479 33.8496 143.221 34.3477 142.893 34.8633C142.576 35.3789 142.172 35.8652 141.68 36.3223C141.188 36.7676 140.596 37.1367 139.904 37.4297C139.213 37.7109 138.393 37.8516 137.443 37.8516C136.236 37.8516 135.141 37.6113 134.156 37.1309C133.184 36.6387 132.41 35.9648 131.836 35.1094C131.273 34.2422 130.992 33.2578 130.992 32.1562C130.992 31.1602 131.18 30.2754 131.555 29.502C131.93 28.7285 132.48 28.0781 133.207 27.5508C133.945 27.0117 134.865 26.6074 135.967 26.3379C137.068 26.0566 138.346 25.916 139.799 25.916H142.734ZM156.129 22.6289V37.5H151.066V18.4805H155.83L156.129 22.6289ZM161.859 18.3574L161.771 23.0508C161.525 23.0156 161.227 22.9863 160.875 22.9629C160.535 22.9277 160.225 22.9102 159.943 22.9102C159.229 22.9102 158.607 23.0039 158.08 23.1914C157.564 23.3672 157.131 23.6309 156.779 23.9824C156.439 24.334 156.182 24.7617 156.006 25.2656C155.842 25.7695 155.748 26.3438 155.725 26.9883L154.705 26.6719C154.705 25.4414 154.828 24.3105 155.074 23.2793C155.32 22.2363 155.678 21.3281 156.146 20.5547C156.627 19.7812 157.213 19.1836 157.904 18.7617C158.596 18.3398 159.387 18.1289 160.277 18.1289C160.559 18.1289 160.846 18.1523 161.139 18.1992C161.432 18.2344 161.672 18.2871 161.859 18.3574Z" fill="#45197C"/>
<path d="M191.461 23.3848V25.2305H175.904V23.3848H191.461ZM176.414 11.9062V37.5H174.252V11.9062H176.414ZM193.201 11.9062V37.5H191.039V11.9062H193.201ZM206.596 37.8516C205.354 37.8516 204.211 37.623 203.168 37.166C202.137 36.709 201.234 36.0645 200.461 35.2324C199.699 34.4004 199.107 33.416 198.686 32.2793C198.275 31.1309 198.07 29.877 198.07 28.5176V27.7617C198.07 26.2969 198.287 24.9727 198.721 23.7891C199.154 22.6055 199.752 21.5918 200.514 20.748C201.275 19.9043 202.143 19.2598 203.115 18.8145C204.1 18.3574 205.131 18.1289 206.209 18.1289C207.416 18.1289 208.488 18.3457 209.426 18.7793C210.363 19.2012 211.148 19.8047 211.781 20.5898C212.426 21.3633 212.912 22.2832 213.24 23.3496C213.568 24.4043 213.732 25.5703 213.732 26.8477V28.1309H199.336V26.3379H211.641V26.0918C211.617 25.0254 211.4 24.0293 210.99 23.1035C210.592 22.166 209.994 21.4043 209.197 20.8184C208.4 20.2324 207.404 19.9395 206.209 19.9395C205.318 19.9395 204.498 20.127 203.748 20.502C203.01 20.877 202.371 21.416 201.832 22.1191C201.305 22.8105 200.895 23.6367 200.602 24.5977C200.32 25.5469 200.18 26.6016 200.18 27.7617V28.5176C200.18 29.5723 200.332 30.5566 200.637 31.4707C200.953 32.373 201.398 33.1699 201.973 33.8613C202.559 34.5527 203.25 35.0918 204.047 35.4785C204.844 35.8652 205.723 36.0586 206.684 36.0586C207.809 36.0586 208.805 35.8535 209.672 35.4434C210.539 35.0215 211.318 34.3594 212.01 33.457L213.328 34.4766C212.918 35.0859 212.402 35.6484 211.781 36.1641C211.172 36.6797 210.439 37.0898 209.584 37.3945C208.729 37.6992 207.732 37.8516 206.596 37.8516ZM229.447 34.0898V24.2812C229.447 23.3789 229.26 22.5996 228.885 21.9434C228.51 21.2871 227.959 20.7832 227.232 20.4316C226.506 20.0801 225.609 19.9043 224.543 19.9043C223.559 19.9043 222.68 20.0801 221.906 20.4316C221.145 20.7715 220.541 21.2344 220.096 21.8203C219.662 22.3945 219.445 23.0332 219.445 23.7363L217.336 23.7188C217.336 23.0039 217.512 22.3125 217.863 21.6445C218.215 20.9766 218.713 20.3789 219.357 19.8516C220.002 19.3242 220.77 18.9082 221.66 18.6035C222.562 18.2871 223.553 18.1289 224.631 18.1289C225.99 18.1289 227.186 18.3574 228.217 18.8145C229.26 19.2715 230.074 19.957 230.66 20.8711C231.246 21.7852 231.539 22.9336 231.539 24.3164V33.5098C231.539 34.166 231.586 34.8457 231.68 35.5488C231.785 36.252 231.932 36.832 232.119 37.2891V37.5H229.887C229.746 37.0781 229.635 36.5508 229.553 35.918C229.482 35.2734 229.447 34.6641 229.447 34.0898ZM229.939 26.4258L229.975 28.043H225.844C224.766 28.043 223.799 28.1426 222.943 28.3418C222.1 28.5293 221.385 28.8105 220.799 29.1855C220.213 29.5488 219.762 29.9883 219.445 30.5039C219.141 31.0195 218.988 31.6055 218.988 32.2617C218.988 32.9414 219.158 33.5625 219.498 34.125C219.85 34.6875 220.342 35.1387 220.975 35.4785C221.619 35.8066 222.381 35.9707 223.26 35.9707C224.432 35.9707 225.463 35.7539 226.354 35.3203C227.256 34.8867 228 34.3184 228.586 33.6152C229.172 32.9121 229.564 32.1445 229.764 31.3125L230.678 32.5254C230.525 33.1113 230.244 33.7148 229.834 34.3359C229.436 34.9453 228.914 35.5195 228.27 36.0586C227.625 36.5859 226.863 37.0195 225.984 37.3594C225.117 37.6875 224.133 37.8516 223.031 37.8516C221.789 37.8516 220.705 37.6172 219.779 37.1484C218.865 36.6797 218.15 36.041 217.635 35.2324C217.131 34.4121 216.879 33.4863 216.879 32.4551C216.879 31.5176 217.078 30.6797 217.477 29.9414C217.875 29.1914 218.449 28.5586 219.199 28.043C219.961 27.5156 220.875 27.1172 221.941 26.8477C223.02 26.5664 224.227 26.4258 225.562 26.4258H229.939ZM239.52 10.5V37.5H237.428V10.5H239.52ZM252.457 18.4805V20.2031H242.93V18.4805H252.457ZM246.428 13.5938H248.52V32.877C248.52 33.7559 248.637 34.418 248.871 34.8633C249.105 35.3086 249.41 35.6074 249.785 35.7598C250.16 35.9121 250.564 35.9883 250.998 35.9883C251.314 35.9883 251.619 35.9707 251.912 35.9355C252.205 35.8887 252.469 35.8418 252.703 35.7949L252.791 37.5703C252.533 37.6523 252.199 37.7168 251.789 37.7637C251.379 37.8223 250.969 37.8516 250.559 37.8516C249.75 37.8516 249.035 37.7051 248.414 37.4121C247.793 37.1074 247.307 36.5918 246.955 35.8652C246.604 35.127 246.428 34.125 246.428 32.8594V13.5938ZM258.961 10.5V37.5H256.869V10.5H258.961ZM258.486 26.8125L257.555 26.2852C257.625 25.1602 257.854 24.1055 258.24 23.1211C258.627 22.1367 259.148 21.2695 259.805 20.5195C260.473 19.7695 261.252 19.1836 262.143 18.7617C263.045 18.3398 264.041 18.1289 265.131 18.1289C266.08 18.1289 266.93 18.2578 267.68 18.5156C268.43 18.7734 269.068 19.1836 269.596 19.7461C270.123 20.3086 270.521 21.0293 270.791 21.9082C271.072 22.7871 271.213 23.8594 271.213 25.125V37.5H269.104V25.1074C269.104 23.7949 268.922 22.7695 268.559 22.0312C268.195 21.2812 267.68 20.748 267.012 20.4316C266.344 20.1152 265.553 19.957 264.639 19.957C263.631 19.957 262.746 20.1797 261.984 20.625C261.234 21.0586 260.602 21.627 260.086 22.3301C259.582 23.0215 259.195 23.7656 258.926 24.5625C258.656 25.3477 258.51 26.0977 258.486 26.8125Z" fill="#45197C"/>
</g>
<path d="M166.883 12.3203L166.812 14.7109H169.285V17.1133L166.766 17.0664L166.707 19.5391H164.48V17.0195L162.055 16.9492V14.7109H164.48V12.3203H166.883Z" fill="#45197C"/>
<defs>
<clipPath id="clip0_10879_14621">
<rect width="220" height="42" fill="white" transform="translate(54 4.5)"/>
</clipPath>
</defs>
</svg>
