<svg width="265" height="226" viewBox="0 0 265 226" fill="none" xmlns="http://www.w3.org/2000/svg">
<path d="M169 129.3C168.778 129.3 168.578 129.07 168.486 128.604V127.422C168.578 126.957 168.778 126.727 169.005 126.727C169.232 126.727 169.427 126.957 169.524 127.422V128.604C169.427 129.07 169.232 129.3 169 129.3ZM169 140.297C168.778 140.297 168.578 139.805 168.486 138.811V136.284C168.578 135.29 168.778 134.798 169.005 134.798C169.232 134.798 169.427 135.29 169.524 136.284V138.811C169.427 139.805 169.232 140.297 169 140.297ZM169 151.294C168.778 151.294 168.578 150.803 168.486 149.808V147.281C168.578 146.288 168.778 145.796 169.005 145.796C169.232 145.796 169.427 146.288 169.524 147.281V149.808C169.427 150.803 169.232 151.294 169 151.294ZM166.432 159.361C166.432 159.139 166.892 158.939 167.823 158.847H168.486V158.183C168.578 157.254 168.778 156.793 169.005 156.793C169.232 156.793 169.427 157.254 169.524 158.183V159.886H167.823C166.892 159.788 166.432 159.594 166.432 159.361ZM155.828 159.361C155.828 159.139 156.302 158.939 157.261 158.847H159.698C160.656 158.939 161.13 159.139 161.13 159.366C161.13 159.594 160.656 159.788 159.698 159.886H157.261C156.302 159.788 155.828 159.594 155.828 159.361ZM145.225 159.361C145.225 159.139 145.699 158.939 146.658 158.847H149.094C150.052 158.939 150.526 159.139 150.526 159.366C150.526 159.594 150.052 159.788 149.094 159.886H146.658C145.699 159.788 145.225 159.594 145.225 159.361ZM134.621 159.361C134.621 159.139 135.095 158.939 136.054 158.847H138.491C139.449 158.939 139.923 159.139 139.923 159.366C139.923 159.594 139.449 159.788 138.491 159.886H136.054C135.095 159.788 134.621 159.594 134.621 159.361ZM126.746 159.361C126.746 159.139 126.976 158.939 127.442 158.847H128.624C129.089 158.939 129.319 159.139 129.319 159.366C129.319 159.594 129.089 159.788 128.624 159.886H127.442C126.976 159.788 126.746 159.594 126.746 159.361Z" fill="#BBCAEA"/>
<path d="M122.047 179.86C130.828 179.86 137.946 172.742 137.946 163.961C137.946 155.181 130.828 148.062 122.047 148.062C113.267 148.062 106.148 155.181 106.148 163.961C106.148 172.742 113.267 179.86 122.047 179.86Z" fill="#FFD964"/>
<path d="M185.733 26.1628C185.956 26.1588 186.16 26.6155 186.284 27.5336C186.314 28.3126 186.355 29.0934 186.444 29.8488C186.451 30.7619 186.423 31.1307 186.239 31.2585C186.037 31.3991 185.602 30.9166 185.413 29.973C185.318 29.1627 185.278 28.3678 185.246 27.5721C185.311 26.6303 185.502 26.1668 185.733 26.1628ZM185.886 15.871C186.107 15.8786 186.295 16.3455 186.362 17.2777L186.299 19.6395C186.182 20.5658 185.97 21.0224 185.743 21.0185C185.516 21.0146 185.333 20.5505 185.261 19.6166L185.324 17.2468C185.446 16.317 185.653 15.8629 185.886 15.871ZM184.163 7.654C184.163 7.43236 184.623 7.23221 185.554 7.14024H186.597C186.889 7.05066 186.742 7.37809 186.764 7.54406L186.735 8.13633L186.674 9.36373C186.537 10.2863 186.314 10.7365 186.087 10.7262C185.86 10.7159 185.689 10.247 185.637 9.31197L185.693 8.17704L185.693 8.17868H185.554C184.623 8.0813 184.163 7.88656 184.163 7.654ZM173.87 7.654C173.87 7.43236 174.331 7.23221 175.261 7.14024H177.627C178.556 7.23221 179.017 7.43236 179.017 7.65952C179.017 7.88656 178.556 8.0813 177.627 8.17868H175.261C174.331 8.0813 173.87 7.88656 173.87 7.654ZM163.578 7.654C163.578 7.43236 164.038 7.23221 164.969 7.14024H167.334C168.264 7.23221 168.724 7.43236 168.724 7.65952C168.724 7.88656 168.264 8.0813 167.334 8.17868H164.969C164.038 8.0813 163.578 7.88656 163.578 7.654ZM153.285 7.654C153.285 7.43236 153.745 7.23221 154.676 7.14024H157.041C157.971 7.23221 158.432 7.43236 158.432 7.65952C158.432 7.88656 157.971 8.0813 157.041 8.17868H154.676C153.745 8.0813 153.285 7.88656 153.285 7.654ZM142.993 7.654C142.993 7.43236 143.453 7.23221 144.384 7.14024H146.749C147.679 7.23221 148.139 7.43236 148.139 7.65952C148.139 7.88656 147.679 8.0813 146.749 8.17868H144.384C143.453 8.0813 142.993 7.88656 142.993 7.654ZM132.7 7.654C132.7 7.43236 133.16 7.23221 134.091 7.14024H136.456C137.386 7.23221 137.846 7.43236 137.846 7.65952C137.846 7.88656 137.386 8.0813 136.456 8.17868H134.091C133.16 8.0813 132.7 7.88656 132.7 7.654ZM122.407 7.654C122.407 7.43236 122.868 7.23221 123.798 7.14024H126.164C127.093 7.23221 127.554 7.43236 127.554 7.65952C127.554 7.88656 127.093 8.0813 126.164 8.17868H123.798C122.868 8.0813 122.407 7.88656 122.407 7.654ZM112.115 7.654C112.115 7.43236 112.575 7.23221 113.506 7.14024H115.871C116.801 7.23221 117.261 7.43236 117.261 7.65952C117.261 7.88656 116.801 8.0813 115.871 8.17868H113.506C112.575 8.0813 112.115 7.88656 112.115 7.654ZM101.822 7.654C101.822 7.43236 102.283 7.23221 103.213 7.14024H105.579C106.508 7.23221 106.969 7.43236 106.969 7.65952C106.969 7.88656 106.508 8.0813 105.579 8.17868H103.213C102.283 8.0813 101.822 7.88656 101.822 7.654ZM91.5297 7.654C91.5297 7.43236 91.9899 7.23221 92.9207 7.14024H95.2859C96.2157 7.23221 96.676 7.43236 96.676 7.65952C96.676 7.88656 96.2157 8.0813 95.2859 8.17868H92.9207C91.9899 8.0813 91.5297 7.88656 91.5297 7.654ZM81.2371 7.654C81.2371 7.43236 81.6973 7.23221 82.6281 7.14024H84.9933C85.9231 7.23221 86.3834 7.43236 86.3834 7.65952C86.3834 7.88656 85.9231 8.0813 84.9933 8.17868H82.6281C81.6973 8.0813 81.2371 7.88656 81.2371 7.654ZM70.9445 7.654C70.9445 7.43236 71.4048 7.23221 72.3355 7.14024H74.7007C75.6305 7.23221 76.0908 7.43236 76.0908 7.65952C76.0908 7.88656 75.6305 8.0813 74.7007 8.17868H72.3355C71.4048 8.0813 70.9445 7.88656 70.9445 7.654ZM60.6519 7.654C60.6519 7.43236 61.1122 7.23221 62.0429 7.14024H64.4081C65.3379 7.23221 65.7982 7.43236 65.7982 7.65952C65.7982 7.88656 65.3379 8.0813 64.4081 8.17868H62.0429C61.1122 8.0813 60.6519 7.88656 60.6519 7.654ZM53.7305 7.654C53.7305 7.43236 53.8892 7.23221 54.2103 7.14024H55.0261C55.3468 7.23221 55.5056 7.43236 55.5056 7.65952C55.5056 7.88656 55.3468 8.0813 55.0261 8.17868H54.2103C53.8892 8.0813 53.7305 7.88656 53.7305 7.654Z" fill="#BBCAEA"/>
<path d="M191.953 39.6055V127.676C191.953 130.295 189.83 132.418 187.211 132.418H82.6243C80.0054 132.418 77.8828 130.295 77.8828 127.676V39.6055H191.953Z" fill="#F3F6FD"/>
<path d="M191.953 33.2911V39.6061H77.8828V33.2911C77.8828 30.6722 80.0054 28.5391 82.6243 28.5391H187.211C189.83 28.5391 191.953 30.6722 191.953 33.2911Z" fill="#E4ECF9"/>
<path d="M85.0164 36.3063C86.0783 36.3063 86.9391 35.4455 86.9391 34.3836C86.9391 33.3217 86.0783 32.4609 85.0164 32.4609C83.9545 32.4609 83.0938 33.3217 83.0938 34.3836C83.0938 35.4455 83.9545 36.3063 85.0164 36.3063Z" fill="#FE4C40"/>
<path d="M90.6727 36.3063C91.7345 36.3063 92.5953 35.4455 92.5953 34.3836C92.5953 33.3217 91.7345 32.4609 90.6727 32.4609C89.6108 32.4609 88.75 33.3217 88.75 34.3836C88.75 35.4455 89.6108 36.3063 90.6727 36.3063Z" fill="#FFCF3D"/>
<path d="M96.3367 36.3063C97.3986 36.3063 98.2594 35.4455 98.2594 34.3836C98.2594 33.3217 97.3986 32.4609 96.3367 32.4609C95.2749 32.4609 94.4141 33.3217 94.4141 34.3836C94.4141 35.4455 95.2749 36.3063 96.3367 36.3063Z" fill="#71C687"/>
<path d="M183.89 58.213V110.067C183.89 113.259 181.296 115.853 178.104 115.853H90.2792C87.0873 115.853 84.5039 113.259 84.5039 110.067V58.213C84.5039 55.0208 87.0873 52.4375 90.2792 52.4375H178.104C181.296 52.4375 183.89 55.0208 183.89 58.213Z" fill="white"/>
<path d="M173.484 61.5422V97.0424C173.484 99.1882 171.755 100.928 169.609 100.928H98.8429C96.6971 100.928 94.957 99.1882 94.957 97.0424V61.5422C94.957 59.3965 96.6971 57.6562 98.8429 57.6562H169.609C171.755 57.6562 173.484 59.3965 173.484 61.5422Z" fill="#F3F6FD"/>
<path d="M162.93 107.266C162.93 107.949 162.385 108.493 161.702 108.493H106.707C106.024 108.493 105.469 107.949 105.469 107.266C105.469 106.582 106.024 106.027 106.707 106.027H161.702C162.385 106.027 162.93 106.582 162.93 107.266Z" fill="#E4ECF9"/>
<path d="M159.968 91.367H125.668L142.572 74.451C143.313 73.7092 144.515 73.709 145.257 74.4505L160.614 89.8076C161.189 90.3831 160.782 91.367 159.968 91.367Z" fill="#D1DCF8"/>
<path d="M145.425 91.3701H108.419C107.606 91.3701 107.198 90.3867 107.773 89.8111L124.47 73.0968C125.216 72.3571 126.412 72.3571 127.158 73.0968L145.425 91.3701ZM141.132 68.0587C141.132 70.5346 139.118 72.5484 136.642 72.5484C134.159 72.5484 132.152 70.5346 132.152 68.0587C132.152 65.5763 134.159 63.5625 136.642 63.5625C139.118 63.5625 141.132 65.5763 141.132 68.0587Z" fill="#D1DCF8"/>
<g opacity="0.05">
<path opacity="0.05" d="M191.95 33.2911V64.6758H165.909C163.153 64.6758 160.914 62.4369 160.914 59.6807V28.5391H187.209C189.828 28.5391 191.95 30.6722 191.95 33.2911Z" fill="black"/>
</g>
<path d="M214.507 18.5788V59.9816C214.507 61.6865 213.124 63.0697 211.412 63.0697H165.908C164.203 63.0697 162.82 61.6865 162.82 59.9816V18.5788C162.82 16.874 164.203 15.4844 165.908 15.4844H211.412C213.124 15.4844 214.507 16.874 214.507 18.5788Z" fill="#F3F6FD"/>
<path d="M165.908 61.5919C165.02 61.5919 164.297 60.8692 164.297 59.9809V18.578C164.297 17.6865 165.02 16.9609 165.908 16.9609H211.412C212.304 16.9609 213.029 17.6865 213.029 18.578V59.9809C213.029 60.8692 212.304 61.5919 211.412 61.5919H165.908Z" fill="white"/>
<path d="M198.159 23.9997V38.5138C198.159 39.2465 197.567 39.839 196.834 39.839H180.485C179.753 39.839 179.16 39.2465 179.16 38.5138V23.9997C179.16 23.2722 179.753 22.6797 180.485 22.6797H196.834C197.567 22.6797 198.159 23.2722 198.159 23.9997Z" fill="#64D3FF"/>
<path d="M188.847 30.2245C190.289 30.2245 191.459 29.055 191.459 27.6123C191.459 26.1696 190.289 25 188.847 25C187.404 25 186.234 26.1696 186.234 27.6123C186.234 29.055 187.404 30.2245 188.847 30.2245Z" fill="white"/>
<path d="M183.543 36.1108H193.781C194.078 36.1108 194.328 35.8295 194.234 35.5326C193.546 33.1098 191.327 31.3125 188.669 31.3125C186.012 31.3125 183.777 33.1098 183.089 35.5326C183.011 35.8295 183.246 36.1108 183.543 36.1108Z" fill="white"/>
<path d="M204.364 46.4039C204.364 47.0935 204.084 47.7231 203.63 48.1778C203.175 48.6325 202.545 48.9123 201.851 48.9123H175.478C174.089 48.9123 172.965 47.788 172.965 46.4039C172.965 45.7094 173.245 45.0799 173.699 44.6251C174.154 44.1704 174.784 43.8906 175.478 43.8906H201.851C203.24 43.8906 204.364 45.0149 204.364 46.4039Z" fill="#E4ECF9"/>
<path d="M204.36 54.9274C204.36 55.617 204.081 56.2466 203.626 56.7012C203.171 57.156 202.542 57.4357 201.847 57.4357H175.474C174.085 57.4357 172.961 56.3115 172.961 54.9274C172.961 54.2329 173.241 53.6033 173.695 53.1486C174.15 52.6939 174.78 52.4141 175.474 52.4141H201.847C203.236 52.4141 204.36 53.5383 204.36 54.9274Z" fill="#E4ECF9"/>
<path d="M63.6787 2.59939V37.3784C63.6787 38.8105 62.5168 39.9724 61.0793 39.9724L6.25027 40.4653C4.81814 40.4653 3.65625 39.3034 3.65625 37.8712V3.09222C3.65625 1.66016 4.81814 0.492831 6.25027 0.492831L61.0793 0C62.5168 -1.02926e-07 63.6787 1.16733 63.6787 2.59939Z" fill="#F3F6FD"/>
<path d="M58.0322 8.34406C58.0322 8.52257 57.8541 8.67249 57.6422 8.67249H9.00718C8.79521 8.67249 8.61719 8.52257 8.61719 8.34406C8.61719 8.1584 8.79521 8.01562 9.00718 8.01562H57.6422C57.8541 8.01562 58.0322 8.1584 58.0322 8.34406ZM24.8353 11.7403C24.8353 11.9188 24.6573 12.0687 24.4453 12.0687H9.00718C8.79521 12.0687 8.61719 11.9188 8.61719 11.7403C8.61719 11.5547 8.79521 11.4119 9.00718 11.4119H24.4453C24.6573 11.4119 24.8353 11.5547 24.8353 11.7403ZM58.4222 11.7403C58.4222 11.9188 58.2441 12.0687 58.0322 12.0687H27.716C27.504 12.0687 27.326 11.9188 27.326 11.7403C27.326 11.5547 27.504 11.4119 27.716 11.4119H58.0322C58.2441 11.4119 58.4222 11.5547 58.4222 11.7403ZM29.9884 15.1366C29.9884 15.3151 29.8104 15.465 29.5984 15.465H9.00718C8.79521 15.465 8.61719 15.3151 8.61719 15.1366C8.61719 14.9509 8.79521 14.8081 9.00718 14.8081H29.5984C29.8104 14.8081 29.9884 14.9509 29.9884 15.1366ZM58.7234 15.1366C58.7234 15.3151 58.5454 15.465 58.3334 15.465H49.2319C49.0199 15.465 48.8419 15.3151 48.8419 15.1366C48.8419 14.9509 49.0199 14.8081 49.2319 14.8081H58.3334C58.5454 14.8081 58.7234 14.9509 58.7234 15.1366ZM31.6844 18.5328C31.6844 18.7113 31.5064 18.8613 31.2944 18.8613H18.4993C18.2873 18.8613 18.1093 18.7113 18.1093 18.5328C18.1093 18.3472 18.2873 18.2044 18.4993 18.2044H31.2944C31.5064 18.2044 31.6844 18.3472 31.6844 18.5328ZM47.2407 18.5328C47.2407 18.7113 47.0627 18.8613 46.8507 18.8613H33.2217C33.0098 18.8613 32.8317 18.7113 32.8317 18.5328C32.8317 18.3472 33.0098 18.2044 33.2217 18.2044H46.8507C47.0627 18.2044 47.2407 18.3472 47.2407 18.5328ZM57.7913 18.5328C57.7913 18.7113 57.6133 18.8613 57.4013 18.8613H49.7011C49.4891 18.8613 49.3111 18.7113 49.3111 18.5328C49.3111 18.3472 49.4891 18.2044 49.7011 18.2044H57.4013C57.6133 18.2044 57.7913 18.3472 57.7913 18.5328ZM58.0322 21.9291C58.0322 22.1076 57.8541 22.2575 57.6422 22.2575H32.9264C32.7144 22.2575 32.5364 22.1076 32.5364 21.9291C32.5364 21.7434 32.7144 21.6006 32.9264 21.6006H57.6422C57.8541 21.6006 58.0322 21.7434 58.0322 21.9291ZM30.8325 21.9291C30.8325 22.1076 30.6545 22.2575 30.4425 22.2575H21.806C21.594 22.2575 21.416 22.1076 21.416 21.9291C21.416 21.7434 21.594 21.6006 21.806 21.6006H30.4425C30.6545 21.6006 30.8325 21.7434 30.8325 21.9291ZM26.1242 25.3253C26.1242 25.5038 25.9462 25.6538 25.7343 25.6538H9.00718C8.79521 25.6538 8.61719 25.5038 8.61719 25.3253C8.61719 25.1397 8.79521 24.9969 9.00718 24.9969H25.7343C25.9462 24.9969 26.1242 25.1397 26.1242 25.3253ZM58.6171 25.3253C58.6171 25.5038 58.4391 25.6538 58.2272 25.6538H32.9264C32.7144 25.6538 32.5364 25.5038 32.5364 25.3253C32.5364 25.1397 32.7144 24.9969 32.9264 24.9969H58.2272C58.4391 24.9969 58.6171 25.1397 58.6171 25.3253ZM43.8996 28.7216C43.8996 28.9001 43.7216 29.05 43.5096 29.05H9.00718C8.79521 29.05 8.61719 28.9001 8.61719 28.7216C8.61719 28.5359 8.79521 28.3932 9.00718 28.3932H43.5096C43.7216 28.3932 43.8996 28.5359 43.8996 28.7216ZM58.7234 28.7216C58.7234 28.9001 58.5454 29.05 58.3334 29.05H45.5768C45.3648 29.05 45.1868 28.9001 45.1868 28.7216C45.1868 28.5359 45.3648 28.3932 45.5768 28.3932H58.3334C58.5454 28.3932 58.7234 28.5359 58.7234 28.7216ZM30.1834 32.1178C30.1834 32.2963 30.0054 32.4463 29.7934 32.4463H9.00718C8.79521 32.4463 8.61719 32.2963 8.61719 32.1178C8.61719 31.9322 8.79521 31.7894 9.00718 31.7894H29.7934C30.0054 31.7894 30.1834 31.9322 30.1834 32.1178Z" fill="#BBCAEA"/>
<path d="M69.5289 104.701C69.5289 104.701 74.0833 144.171 75.9499 145.873C77.8165 147.575 65.2993 145.598 65.2993 145.598L55.582 128.854L56.0212 116.996C56.0212 116.996 60.9622 101.953 61.1269 102.008C61.2916 102.063 69.5289 104.701 69.5289 104.701ZM55.9561 220.106L60.6045 223.295L63.3071 222.105C63.3071 222.105 63.3747 220.742 63.4288 217.432C63.4557 214.932 63.4963 212.702 63.4963 212.567C63.4963 212.229 56.5507 212.635 56.2264 212.743C56.0913 212.783 56.0237 214.31 55.9967 216.148C55.9291 218.878 55.9561 219.862 55.9561 220.106Z" fill="#FEC9AC"/>
<path opacity="0.5" d="M55.9961 216.147C58.077 217.133 60.3878 217.606 62.685 217.498C62.9282 217.484 63.1849 217.471 63.4282 217.43C63.4551 214.93 63.4957 212.701 63.4957 212.565C63.4957 212.228 56.5501 212.633 56.2258 212.741C56.0907 212.782 56.0231 214.309 55.9961 216.147Z" fill="#FFAB90"/>
<path d="M53.6282 225.284C53.6907 225.704 54.0569 225.998 54.4855 225.998H75.4185C75.7846 225.998 76.1061 225.775 76.24 225.436C76.5526 224.587 76.9723 223.015 75.999 222.346C74.6415 221.417 71.7659 222.274 69.7834 220.872C67.8097 219.479 65.4432 214.737 62.6033 217.961C62.6033 217.961 60.3171 221.462 58.7632 220.72C57.2093 219.979 56.0484 216.148 54.1819 217.612C53.2442 218.354 53.3246 223.48 53.6282 225.284Z" fill="#3A4146"/>
<path d="M67.3794 213.422C66.8264 214.966 56.6915 216.73 53.7169 213.975C50.7422 211.219 39.7206 134.087 40.0543 131.008L62.2023 135.346C62.2023 135.346 62.2118 135.527 62.2404 135.87C62.7362 142.601 67.8942 211.963 67.3794 213.422Z" fill="#022E4F"/>
<path d="M5.80469 209.436L7.64144 214.766L10.521 215.419C10.521 215.419 11.3867 214.364 13.4009 211.736C14.9107 209.743 16.2704 207.976 16.351 207.867C16.552 207.596 10.7297 203.787 10.4047 203.681C10.272 203.633 9.30877 204.82 8.19307 206.281C6.51395 208.434 5.94942 209.241 5.80469 209.436Z" fill="#FEC9AC"/>
<path opacity="0.5" d="M8.19141 206.281C9.27634 208.312 10.8517 210.067 12.7618 211.348C12.9652 211.482 13.1796 211.624 13.3992 211.736C14.909 209.743 16.2688 207.976 16.3493 207.867C16.5504 207.596 10.728 203.787 10.403 203.681C10.2703 203.633 9.30711 204.82 8.19141 206.281Z" fill="#FFAB90"/>
<path d="M0.85083 212.218C0.651232 212.593 0.769999 213.047 1.11443 213.303L17.9347 225.763C18.2289 225.981 18.6201 225.993 18.9298 225.8C19.686 225.305 20.9588 224.291 20.5754 223.174C20.0375 221.619 17.2164 220.597 16.458 218.29C15.7015 215.996 16.6227 210.776 12.4217 211.677C12.4217 211.677 8.50084 213.129 7.69347 211.608C6.88601 210.087 8.23372 206.318 5.86223 206.384C4.66746 206.421 1.68071 210.588 0.85083 212.218Z" fill="#3A4146"/>
<path d="M28.7297 130.066C28.5816 131.056 28.4429 132.037 28.3133 133.009C28.2763 132.926 28.2578 132.833 28.2578 132.741C28.4059 131.843 28.5632 130.945 28.7297 130.066Z" fill="#71C687"/>
<path d="M53.7211 133.393C53.7211 133.393 51.5528 168.305 46.06 176.478C32.9159 196.035 17.6211 212.157 17.6211 212.157C17.6211 212.157 7.95198 205.546 7.97269 201.96C7.98831 199.255 27.2455 171.408 27.2455 171.408C27.2455 171.408 24.8262 136.473 28.7514 132.742C29.7987 131.746 53.7211 133.393 53.7211 133.393Z" fill="#003567"/>
<path d="M71.2832 106.015C71.4131 106.729 63.7894 107.406 61.4058 107.146C61.582 120.752 62.1941 135.341 62.1941 135.341C62.0643 138.133 39.9907 136.964 31.5137 134.599C29.7609 134.126 28.583 133.579 28.3141 133.013C28.4439 132.039 28.583 131.056 28.7314 130.073C30.4472 120.623 32.6638 112.572 32.5154 112.452C27.5999 113.184 23.2037 111.663 20.9593 108.992C20.7089 108.705 20.4956 108.398 20.3008 108.083C20.3008 108.083 20.3193 107.981 20.3471 107.786C20.7459 105.625 23.519 92.1586 32.5154 86.4084C32.7473 86.2601 32.9791 86.1208 33.211 85.9818C41.2614 81.3724 53.5966 82.8933 60.7473 86.7331C61.9159 87.3173 62.9732 88.115 63.8914 89.0608C68.6679 93.8467 70.5228 102.277 71.0978 105.106C71.1905 105.579 71.2555 105.904 71.2832 106.015Z" fill="#64D3FF"/>
<path d="M62.1986 135.342C62.069 138.127 39.9914 136.962 31.5156 134.602C38.3536 131.919 44.7844 128.181 50.4472 123.517C52.2331 122.046 53.9264 120.473 55.4624 118.752C58.2476 115.624 60.0982 111.081 61.4028 107.148C61.5786 120.75 62.1986 135.342 62.1986 135.342Z" fill="#EA241F"/>
<path d="M79.3326 110.756V145.527C79.3326 147.304 78.1297 148.738 76.6474 148.738H20.9195C19.4294 148.738 18.2188 147.294 18.2188 145.518V110.775C18.2188 108.998 19.4294 107.555 20.9195 107.555H76.6474C78.1297 107.555 79.3326 108.989 79.3326 110.756Z" fill="#FE4C40"/>
<path d="M18.2188 140.988V145.519C18.2188 147.295 19.4294 148.739 20.9195 148.739H76.6475C78.1297 148.739 79.3327 147.305 79.3327 145.528V140.988H18.2188Z" fill="#F3F6FD"/>
<path d="M31.5144 145.871C31.1905 146.889 27.9057 146.619 27.9057 146.619C27.9057 146.619 33.2891 150.342 24.3614 150.321C17.3397 150.305 20.4848 143.093 20.4848 143.093C15.8027 127.632 20.9567 108.988 20.9567 108.988C23.2051 111.662 27.6003 113.18 32.5137 112.449C31.8604 115.478 28.4424 132.037 28.3128 133.009C27.6003 138.237 27.0729 140.253 26.8416 142.807C26.8416 142.807 32.1158 143.946 31.5144 145.871ZM75.914 148.692C75.914 151.213 65.4258 151.213 65.4258 148.692C65.4258 146.171 67.7779 144.155 70.6779 144.155C73.5618 144.155 75.914 146.171 75.914 148.692Z" fill="#FEC9AC"/>
<path d="M35.9793 101.668C35.9793 101.668 34.4209 108.898 32.5186 112.448C27.6053 113.179 23.2101 111.661 20.9616 108.987C20.7118 108.7 20.499 108.395 20.3047 108.08C20.3047 108.08 20.3232 107.979 20.3509 107.784C27.5035 106.063 35.9793 101.668 35.9793 101.668Z" fill="#13B1E2"/>
<path d="M71.2837 106.009C71.4132 106.731 63.7888 107.407 61.4015 107.148L61.0352 97.293C61.0352 97.293 66.065 102.789 71.0986 105.103C71.1912 105.575 71.256 105.898 71.2837 106.009Z" fill="#13B1E2"/>
<path d="M50.002 88.4039C42.3789 88.907 42.3789 83.2801 42.3789 83.2801C43.1984 82.316 43.478 80.5033 43.5552 78.9512C43.6419 77.4664 43.5262 76.2227 43.5262 76.2227L52.1648 79.1536C52.1648 79.4043 52.1745 79.6357 52.2034 79.8478C52.4252 82.0943 54.6223 84.36 54.6223 84.36C54.6223 84.36 55.7245 88.0263 50.002 88.4039Z" fill="#FEC9AC"/>
<g opacity="0.5">
<path opacity="0.5" d="M52.2045 79.8478C51.5296 80.4167 50.7101 80.8119 49.7171 80.9567C46.8343 81.3905 44.8482 80.2719 43.5563 78.9512C43.643 77.4664 43.5273 76.2227 43.5273 76.2227L52.1659 79.1536C52.1659 79.4043 52.1756 79.6357 52.2045 79.8478Z" fill="#FFAB90"/>
</g>
<path d="M50.1347 79.8893C43.9164 80.829 41.8869 74.5506 41.8869 74.5506C41.8869 74.5506 38.2879 73.2212 38.9177 70.5217C39.0077 70.1419 39.1577 69.8719 39.3576 69.7021C40.1974 68.9323 41.8069 69.8119 42.2968 70.1119C42.2968 70.1119 42.3168 70.1219 42.3468 70.1419C42.4168 70.1819 42.4468 70.2019 42.4468 70.2019L42.4568 70.1819L45.296 62.5538C45.296 62.5538 52.4835 61.3847 54.9928 64.0341C55.1928 64.234 55.4252 63.9348 55.5552 64.1747C55.5552 64.1747 57.5128 78.7797 50.1347 79.8893Z" fill="#FEC9AC"/>
<path d="M55.0204 64.4921C54.3006 64.612 53.6007 64.5819 53.0909 64.4321C51.1914 63.8722 50.1717 64.8119 49.5919 64.8919C49.012 64.972 48.822 63.8522 48.822 63.8522C45.323 63.5124 43.5085 69.0759 43.2585 69.7656C43.0786 70.2755 42.7237 70.2904 42.4537 70.1806C42.4138 70.1706 42.3737 70.1505 42.3438 70.1405C42.3138 70.1205 42.2938 70.1105 42.2938 70.1105C41.8039 69.8105 40.1943 68.9309 39.3545 69.7007C37.545 68.5409 35.1357 58.5435 40.7642 55.4145C46.0828 52.4553 53.2309 53.5849 55.0104 56.5841C56.78 59.5833 57.9396 59.3225 58.7594 60.3731C60.3233 62.3773 56.9499 64.1922 55.0204 64.4921Z" fill="#2E363A"/>
<path d="M47.758 71.027C48.1184 71.027 48.4106 70.6187 48.4106 70.1151C48.4106 69.6114 48.1184 69.2031 47.758 69.2031C47.3976 69.2031 47.1055 69.6114 47.1055 70.1151C47.1055 70.6187 47.3976 71.027 47.758 71.027Z" fill="#4F2D2B"/>
<path d="M53.0744 70.6168C53.4348 70.6168 53.727 70.2085 53.727 69.7049C53.727 69.2012 53.4348 68.793 53.0744 68.793C52.714 68.793 52.4219 69.2012 52.4219 69.7049C52.4219 70.2085 52.714 70.6168 53.0744 70.6168Z" fill="#4F2D2B"/>
<path d="M45.8842 68.6491C45.8328 68.6058 45.8873 68.395 46.1935 68.0864C46.4685 67.8509 46.8416 67.6672 47.2393 67.6804C47.7203 67.7358 47.8464 68.0105 47.7928 68.0467C47.7389 68.1124 47.5718 68.0054 47.2308 68.0265C46.9385 68.0168 46.6558 68.1486 46.4151 68.3523C46.1124 68.5725 45.9467 68.7036 45.8842 68.6491Z" fill="#4F2D2B"/>
<path d="M54.2749 67.2211C54.2355 67.2955 54.0236 67.2123 53.6119 67.2034C53.2655 67.1731 52.9062 67.2616 52.6209 67.4529C52.2574 67.6503 52.2269 67.8365 52.146 67.8437C52.0598 67.8809 51.991 67.4791 52.4279 67.1656C52.7846 66.9271 53.2186 66.8224 53.6405 66.8585C54.1431 66.9434 54.3122 67.1683 54.2749 67.2211Z" fill="#4F2D2B"/>
<path d="M50.0415 73.9839C50.0554 73.9467 50.1373 73.9513 50.2707 73.9009C50.3833 73.8533 50.6652 73.732 50.7437 73.5467C50.8192 73.3917 50.7411 73.0881 50.684 72.8263C50.6209 72.558 50.5396 72.2904 50.459 72.0188C50.2912 71.3673 50.3036 71.0141 50.3772 71.0042C50.454 70.993 50.5655 71.2961 50.7908 71.9203C50.871 72.1906 50.9544 72.4644 51.0209 72.7467C51.0657 73.0274 51.1988 73.306 51.0579 73.6921C50.4707 74.3717 49.9728 74.0256 50.0415 73.9839Z" fill="#4F2D2B"/>
<path d="M47.3815 74.7075C47.4541 74.6667 47.6183 74.9144 47.9986 75.3107C48.3033 75.6719 48.7064 75.8801 49.1715 75.9486C49.7115 76.0867 49.9915 76.0746 50.0055 76.1564C50.0247 76.2226 49.7178 76.3747 49.1097 76.2892C48.591 76.2176 48.0759 75.9478 47.7406 75.5415C47.363 75.0484 47.3223 74.737 47.3815 74.7075Z" fill="#4F2D2B"/>
<path d="M41.1936 70.3668C41.2075 70.4409 41.1282 70.5205 40.999 70.628C40.8723 70.7346 40.6916 70.8845 40.648 71.0846C40.4899 71.4389 40.7788 71.9785 41.1787 72.3663C41.5341 72.9334 41.834 72.9771 41.837 73.1529C41.8355 73.2248 41.7306 73.3053 41.5034 73.2928C41.266 73.2914 40.9671 73.1303 40.6789 72.8454C40.4216 72.5931 40.2401 72.3415 40.0725 71.9999C39.9172 71.6637 39.842 71.2345 40.0072 70.8226C40.2638 70.333 40.6673 70.2554 40.8613 70.2393C41.0767 70.2295 41.1803 70.2929 41.1936 70.3668Z" fill="#FFAB90"/>
<path d="M55.7511 126.441L48.0869 131.005C47.6266 131.279 47.043 130.947 47.043 130.411V121.278C47.043 120.742 47.627 120.41 48.0873 120.684L55.7515 125.255C56.2009 125.523 56.2006 126.174 55.7511 126.441Z" fill="#F3F6FD"/>
<path d="M248.746 220.573C248.042 221.318 246.786 222.284 244.965 222.284C241.667 222.298 241.86 219.965 241.308 218.792V218.779C241.294 218.682 241.28 217.661 241.266 216.529C241.239 215.411 241.211 214.17 241.184 213.59C243.53 213.645 246.483 213.314 248.718 212.734V220.407L248.746 220.573Z" fill="#FEC9AC"/>
<path opacity="0.5" d="M248.718 212.734V214.556C248.484 214.777 248.221 214.97 247.945 215.149C247.614 215.37 247.269 215.563 246.897 215.729C245.613 216.309 244.206 216.529 242.798 216.557C242.288 216.571 241.777 216.557 241.266 216.529C241.239 215.411 241.211 214.17 241.184 213.59C243.53 213.645 246.483 213.314 248.718 212.734Z" fill="#FFAB90"/>
<path d="M250.998 225.273C250.824 225.67 250.433 225.935 249.994 225.935H228.595C228.372 225.935 228.184 225.754 228.184 225.531C228.184 224.729 228.414 223.963 228.825 223.307C229.236 222.659 229.815 222.095 230.554 221.774C234.325 220.122 238.416 215.215 241.065 216.686C241.253 216.79 241.379 216.957 241.483 217.166C241.483 217.174 241.483 217.18 241.483 217.18C241.999 218.268 241.818 220.443 244.885 220.429C246.572 220.422 247.451 219.513 248.106 218.823C248.531 218.377 248.776 218.001 249.032 218.024C249.195 218.038 252.845 220.958 250.998 225.273Z" fill="#2E363A"/>
<path d="M227.57 220.573C226.866 221.318 225.611 222.284 223.789 222.284C220.491 222.298 220.684 219.965 220.132 218.792V218.779C220.118 218.682 220.104 217.661 220.091 216.529C220.063 215.411 220.035 214.17 220.008 213.59C222.354 213.645 225.307 213.314 227.542 212.734V220.407L227.57 220.573Z" fill="#FEC9AC"/>
<path opacity="0.5" d="M227.542 212.734V214.556C227.308 214.777 227.046 214.97 226.77 215.149C226.439 215.37 226.094 215.563 225.721 215.729C224.437 216.309 223.03 216.529 221.622 216.557C221.112 216.571 220.601 216.557 220.091 216.529C220.063 215.411 220.035 214.17 220.008 213.59C222.354 213.645 225.307 213.314 227.542 212.734Z" fill="#FFAB90"/>
<path d="M229.822 225.273C229.648 225.67 229.257 225.935 228.818 225.935H207.419C207.196 225.935 207.008 225.754 207.008 225.531C207.008 224.729 207.238 223.963 207.649 223.307C208.06 222.659 208.639 222.095 209.378 221.774C213.149 220.122 217.24 215.215 219.889 216.686C220.077 216.79 220.203 216.957 220.307 217.166C220.307 217.174 220.307 217.18 220.307 217.18C220.823 218.268 220.642 220.443 223.709 220.429C225.396 220.422 226.275 219.513 226.93 218.823C227.356 218.377 227.6 218.001 227.856 218.024C228.019 218.038 231.669 220.958 229.822 225.273Z" fill="#3A4146"/>
<path d="M247.176 116.072V123.95C247.176 123.95 261.925 121.572 263.937 114.465C264.943 110.951 263.336 107.358 261.442 104.615C261.141 104.197 260.841 103.792 260.54 103.413V103.4C258.868 101.27 257.274 99.8984 257.274 99.8984L253.225 102.851C253.225 102.851 248.639 107.423 249.122 108.638C249.331 109.174 249.841 110.049 250.337 110.859C250.991 111.931 251.644 112.897 251.644 112.897L247.176 116.072Z" fill="#FEC9AC"/>
<path opacity="0.5" d="M249.122 108.638C249.331 109.174 249.84 110.049 250.337 110.859C253.198 110.781 260.54 105.568 260.54 103.413V103.4C258.868 101.27 257.274 99.8984 257.274 99.8984L253.224 102.851C253.224 102.851 248.638 107.423 249.122 108.638Z" fill="#FFAB90"/>
<path d="M181.279 85.9944C181.279 85.9944 182.363 91.8603 184.401 98.5621C186.91 106.832 190.868 116.382 196.028 117.819C198.589 118.524 202.077 115.99 204.494 113.795C206.179 112.279 207.355 110.921 207.355 110.921L201.15 100.287L199.817 97.9873C199.556 98.157 197.439 99.9339 196.682 100.574C196.512 100.718 196.407 100.809 196.407 100.809C196.407 100.809 187.249 84.4788 187.249 84.2699C187.249 84.061 188.347 77.2022 186.727 77.4111C185.094 77.6201 184.78 80.2852 184.78 80.2852C184.78 80.2852 181.592 71.7542 179.502 72.277C177.464 72.7864 181.867 78.6653 182.102 78.9657C178.875 77.3196 176.537 83.7994 181.279 85.9944Z" fill="#FEC9AC"/>
<path opacity="0.5" d="M196.68 100.575C196.902 101.084 197.307 101.542 197.581 102.012C197.999 102.73 198.3 103.514 198.535 104.311C198.94 105.67 199.162 107.081 199.528 108.453C199.907 109.825 200.468 111.196 201.422 112.241C202.219 113.104 203.342 113.731 204.492 113.796C206.177 112.28 207.353 110.922 207.353 110.922L201.148 100.288L199.815 97.9883C199.554 98.158 197.437 99.9348 196.68 100.575Z" fill="#FFAB90"/>
<path d="M206.935 112.957L214.003 106.948C214.003 106.948 213.99 106.987 213.977 107.065C213.702 108.816 210.528 123.591 210.946 127.171C211.56 132.645 246.846 132.253 249.511 128.595C251.223 126.243 248.675 111.259 248.675 111.259C252.385 111.52 260.603 100.154 258.8 97.3845C258.8 97.3845 255.756 92.2762 250.334 87.4687C245.853 83.5102 239.752 79.7478 232.41 79.2774C213.663 78.0494 199.606 96.5221 199.606 96.5221C197.267 98.7171 204.296 114.015 206.935 112.957Z" fill="#FFCF3D"/>
<path d="M213.301 127.75C213.301 127.75 213.301 129.291 213.327 131.93C218.984 135.261 241.441 135.17 248.561 132.91C248.235 128.873 247.96 126.117 247.764 125.346C246.693 120.943 213.301 127.75 213.301 127.75Z" fill="#022E4F"/>
<path d="M213.301 127.75C213.301 127.75 213.301 129.291 213.327 131.93V132.1C213.405 145.504 213.732 198.431 214.725 212.396C214.725 214.069 221.688 214.617 226.26 214.043C228.507 213.768 230.167 213.206 230.167 212.396C230.807 198.797 231.329 149.723 231.329 149.723C231.329 149.723 231.329 149.763 231.342 149.828C231.342 149.841 231.342 149.841 231.342 149.854C231.525 152.18 234.609 199.136 236.764 212.396C236.764 213.194 238.959 213.69 241.637 213.873C245.883 214.147 251.383 213.664 251.383 212.396C251.919 205.08 250.821 167.033 249.658 148.665C249.293 142.643 248.901 137.156 248.561 132.91C248.235 128.873 247.96 126.117 247.764 125.346C246.693 120.943 213.301 127.75 213.301 127.75Z" fill="#003567"/>
<path d="M213.301 127.75C213.301 127.75 213.301 129.291 213.327 131.93V132.1C216.658 134.399 220.669 135.719 224.706 135.732C229.618 135.732 234.844 133.981 239.272 136.124C244.211 138.501 245.961 144.655 249.658 148.665C249.293 142.643 248.901 137.156 248.561 132.91C248.235 128.873 247.96 126.117 247.764 125.346C246.693 120.943 213.301 127.75 213.301 127.75ZM231.342 149.854C231.525 152.18 234.609 199.136 236.764 212.396C236.764 213.194 238.959 213.69 241.637 213.873C237.025 199.267 231.708 152.232 231.342 149.854ZM226.26 214.043C228.507 213.768 230.167 213.206 230.167 212.396C230.807 198.797 231.329 149.723 231.329 149.723C231.329 149.723 227.515 199.045 226.26 214.043Z" fill="#022E4F"/>
<path d="M222.426 80.3943L222.903 72.3807C222.903 72.3807 217.584 73.3922 217.055 70.5614C216.594 68.0944 217.055 66.2296 217.055 66.2296C217.055 66.2296 215.149 64.8435 215.495 64.2803C215.842 63.7172 218.831 62.0278 218.831 62.0278C218.831 62.0278 218.831 52.1515 225.112 52.9745C231.393 53.7975 233.212 66.013 233.212 66.013L231.783 72.0775L232.302 80.3943C232.302 81.1105 222.426 81.1105 222.426 80.3943Z" fill="#FEC9AC"/>
<path d="M221.135 55.529C222.05 56.1168 222.768 56.8223 223.356 57.5802C225.42 60.2842 225.616 63.5895 225.329 63.9815C224.963 64.4912 227.811 68.5932 227.811 68.5932C227.811 68.5932 227.21 71.6242 224.976 73.5315C224.036 74.3414 223.487 75.9875 223.879 77.6728C224.101 78.6265 224.611 79.5932 225.538 80.4164C226.818 81.6051 228.896 82.5065 232.005 82.7416C241.267 83.4343 249.224 81.5398 249.642 76.0267C250.06 70.5267 244.873 68.2535 243.854 61.4602C243.423 58.5469 242.012 55.5682 239.856 53.2035C239.334 52.6288 238.772 52.0929 238.171 51.5966C235.454 49.3627 231.913 48.0432 227.89 48.5003C222.599 49.0884 220.286 50.9957 219.894 52.7592C219.646 53.8567 220.156 54.9019 221.135 55.529Z" fill="#AD4F36"/>
<path d="M217.027 67.6563C217.093 67.6033 217.278 67.8285 217.75 68.038C218.141 68.2273 218.606 68.2277 219.038 68.1004C219.549 67.9861 219.719 67.7679 219.789 67.8172C219.857 67.8356 219.74 68.2217 219.135 68.4329C218.648 68.5771 218.084 68.5854 217.599 68.3496C217.053 68.025 216.971 67.6849 217.027 67.6563Z" fill="#4F2D2B"/>
<path d="M220.605 61.6659C220.645 61.2124 220.476 60.8267 220.227 60.8044C219.978 60.782 219.743 61.1316 219.702 61.5851C219.662 62.0386 219.831 62.4243 220.08 62.4467C220.329 62.469 220.564 62.1194 220.605 61.6659Z" fill="#4F2D2B"/>
<path d="M221.498 59.7283C221.417 59.7523 221.323 59.4965 221.001 59.1166C220.744 58.7818 220.376 58.5406 219.966 58.4384C219.49 58.2939 219.218 58.3095 219.208 58.2241C219.192 58.1631 219.468 58.0014 220.052 58.1031C220.533 58.2222 220.973 58.511 221.274 58.9047C221.6 59.4002 221.562 59.7181 221.498 59.7283Z" fill="#4F2D2B"/>
<path d="M210.944 127.171C211.558 132.645 246.845 132.253 249.51 128.595C251.221 126.243 248.674 111.259 248.674 111.259C252.384 111.52 260.601 100.154 258.798 97.3846C258.798 97.3846 255.754 92.2763 250.333 87.4688C247.628 91.2445 244.807 94.9545 241.528 98.2337C237.804 101.97 233.441 105.158 228.489 106.974C223.538 108.777 218.939 108.881 213.975 107.065C213.701 108.816 210.526 123.591 210.944 127.171Z" fill="#FCC230"/>
<path d="M227.791 68.5775C229.257 68.3035 230.218 66.8642 229.937 65.3628C229.656 63.8614 228.24 62.8665 226.775 63.1405C225.309 63.4146 224.349 64.8538 224.629 66.3552C224.91 67.8566 226.326 68.8516 227.791 68.5775Z" fill="#FEC9AC"/>
<path d="M225.539 80.416C226.819 81.6047 228.897 82.5061 232.006 82.7412C241.268 83.4339 249.225 81.5394 249.643 76.0263C250.061 70.5263 244.874 68.2531 243.855 61.4598C243.424 58.5465 242.013 55.5678 239.857 53.2031C239.387 53.9217 239.648 55.5417 239.675 56.208C239.844 59.1213 240.654 62.0084 242.026 64.5951C242.81 66.0715 243.79 67.4561 244.926 68.6844C246.298 70.1343 247.996 71.65 247.996 73.6485C247.983 75.4515 246.533 76.9277 245.031 77.9205C241.66 80.1417 237.558 81.03 233.534 81.0954C230.856 81.1343 228.191 80.8469 225.539 80.416Z" fill="#C16244"/>
<path d="M226.46 66.706C226.483 66.6717 226.592 66.7228 226.807 66.7489C227.017 66.7737 227.355 66.7566 227.692 66.4975C227.981 66.2877 228.2 65.9673 228.162 65.6348C228.133 65.2961 227.918 64.9545 227.666 64.6909C227.376 64.365 227.062 64.3183 226.862 64.3628C226.663 64.4031 226.581 64.4963 226.547 64.4701C226.519 64.4599 226.543 64.2963 226.794 64.1681C227.027 64.0307 227.538 64.0621 227.911 64.4471C228.206 64.7607 228.459 65.135 228.507 65.6067C228.555 66.0989 228.245 66.5288 227.893 66.7794C227.442 67.0818 226.988 67.044 226.756 66.9488C226.512 66.8513 226.44 66.7321 226.46 66.706Z" fill="#FFAB90"/>
<path d="M132.136 158.967L130.804 160.199C130.663 160.33 130.435 160.33 130.294 160.199L126.845 157.008C126.704 156.877 126.704 156.665 126.845 156.535L128.177 155.302C128.449 155.05 128.89 155.05 129.163 155.302L132.136 158.054C132.408 158.306 132.408 158.715 132.136 158.967ZM126.266 157.543L129.715 160.735C129.856 160.866 129.856 161.077 129.715 161.208L119.794 170.39C119.676 170.499 119.485 170.499 119.368 170.39L115.835 167.12C115.717 167.011 115.717 166.834 115.835 166.725L125.756 157.543C125.897 157.413 126.125 157.413 126.266 157.543ZM118.411 171.351L113.301 172.735L114.797 168.006C114.861 167.802 115.137 167.737 115.299 167.887L118.539 170.885C118.701 171.035 118.631 171.291 118.411 171.351Z" fill="white"/>
</svg>
